<?xml version="1.0" standalone="no"?>
<svg
  width="600"
  height="600"
  viewBox="0 0 600 600"
  xmlns="http://www.w3.org/2000/svg"
>
  <g transform="translate(300,300)">
    <path d="M80.3,-76.6C126,-57.5,199.9,-52.9,225.5,-22.7C251.2,7.5,228.7,63.2,195.2,104.6C161.7,146.1,117.3,173.1,68.1,194C18.9,214.9,-35,229.6,-78.6,214.4C-122.2,199.2,-155.5,154.1,-170.2,108.2C-185,62.2,-181.1,15.5,-172.5,-29.9C-163.8,-75.2,-150.4,-119.2,-120.8,-141.2C-91.3,-163.1,-45.6,-163.1,-14.1,-146.2C17.4,-129.3,34.7,-95.7,80.3,-76.6Z" fill="#FFB4BC" />
  </g>
</svg>
  