<?xml version="1.0" standalone="no"?>
<svg
  width="600"
  height="600"
  viewBox="0 0 600 600"
  xmlns="http://www.w3.org/2000/svg"
>
  <g transform="translate(300,300)">
    <path d="M164.4,-189.4C201.5,-164.8,212,-102,190,-58.4C168,-14.8,113.4,9.6,88,48.2C62.6,86.9,66.4,139.8,41.7,174.8C17.1,209.9,-35.9,227.1,-80.8,214.2C-125.7,201.2,-162.4,158.1,-161.6,114.9C-160.7,71.7,-122.2,28.5,-119.6,-27.2C-117.1,-82.9,-150.5,-151,-136.5,-179.7C-122.6,-208.4,-61.3,-197.7,1.2,-199.1C63.6,-200.5,127.3,-214,164.4,-189.4Z" fill="#FFB4BC" />
  </g>
</svg>
  