<?xml version="1.0" standalone="no"?>
<svg
  width="600"
  height="600"
  viewBox="0 0 600 600"
  xmlns="http://www.w3.org/2000/svg"
>
  <g transform="translate(300,300)">
    <path d="M119.9,-133.4C155.9,-112.8,185.8,-75.4,185.9,-38.2C185.9,-1,156.2,36,130.1,69.4C104,102.9,81.6,132.7,51.4,145.6C21.2,158.5,-16.8,154.4,-36.6,133.1C-56.4,111.7,-58.1,73.1,-97.5,39.5C-137,5.9,-214.3,-22.8,-233.8,-63.6C-253.3,-104.5,-215,-157.6,-166.4,-176C-117.8,-194.4,-58.9,-178.2,-8.5,-168.1C42,-158,84,-154.1,119.9,-133.4Z" fill="#FFB4BC" />
  </g>
</svg>
  